<?xml version="1.0" encoding="utf-8"?>
<!-- Generator: Adobe Illustrator 18.0.0, SVG Export Plug-In . SVG Version: 6.00 Build 0)  -->
<!DOCTYPE svg PUBLIC "-//W3C//DTD SVG 1.1//EN" "http://www.w3.org/Graphics/SVG/1.1/DTD/svg11.dtd">
<svg version="1.1" id="Logo" xmlns="http://www.w3.org/2000/svg" xmlns:xlink="http://www.w3.org/1999/xlink" x="0px" y="0px"
	 viewBox="0 0 2786.3 1822.9" enable-background="new 0 0 2786.3 1822.9" xml:space="preserve">
<g>
	<polygon fill="#FFFFFF" points="1295.1,596.3 1317.9,625.2 1317.9,674.7 1326.5,674.7 1326.5,600.2 1343.8,524.7 1360,599.7 
		1360.2,682.2 1386.3,682.2 1386.5,670.6 1411.3,641.6 1434.4,670.6 1434.4,685.7 1442.6,685.7 1449.1,676.8 1449.1,816.5 
		1295.1,816.5 	"/>
	<polygon fill="#FFFFFF" points="1563.8,623.5 1589.9,595 1606.1,446.8 1627.9,592.6 1648.3,616.9 1648.3,735.2 1670.2,735.2 
		1700.4,665.1 1718.2,665.3 1759,727.6 1759,816.5 1563.8,816.5 	"/>
	<polygon fill="#FFFFFF" points="1064.8,590.2 1087.6,570.9 1121.8,159.8 1178.1,573.1 1178.1,844.7 1064.8,607.3 	"/>
	<path fill="#FFFFFF" d="M723,913.1V708.8h25.7l15.7-30.4h27.1v-47.5c0,0-15.7-4.7-15.7-18.1c19,0,58.9,0,58.9,0v-26
		c0,0,20.8,11.9,20.8,20.8c0,8.9-14.6,18-14.6,18v32.8h26v-62c0,0-17.8-8.5-17.8-17.8c0-9.3,41.5-41.5,41.5-41.5s28.4,20.8,34,30.6
		c-23,44.6-170.3,334.1-170.3,334.1l-5.9,11.3H723z"/>
	<polygon fill="#FFFFFF" points="909,855.8 1048.9,855.8 1074.3,913.1 880.5,913.1 	"/>
	<polygon fill="#FFFFFF" points="173.8,913.1 263.7,752.5 332.1,752.5 332.1,687 391,634.7 449.9,686 449.9,712.6 490.7,712.6 
		519.3,684.1 540.2,684.1 540.2,610 610.5,610 610.5,913.1 	"/>
	<polygon fill="#FFFFFF" points="573.6,496.9 596.4,353 622.8,496.9 	"/>
	<polyline fill="#FFFFFF" points="626.9,594.1 515.7,594.1 515.7,514 818.1,514 818.1,594.1 706.7,594.1 706.7,913.1 626.9,913.1 	
		"/>
	<polygon fill="#FFFFFF" points="1198.5,514 1198.5,913.1 1426.5,913.1 1426.5,833.2 1278,833.4 1278.4,514 	"/>
	<polygon fill="#FFFFFF" points="1467.1,515.2 1467.1,913.1 1689.1,913.1 1689.1,834.7 1540.6,834.6 1541.1,515.2 	"/>
	<polygon fill="#FFFFFF" points="1734.4,514 1900.1,514 1900.1,594.2 1856.6,594.2 1856.6,833.6 1900.1,833.6 1900.1,913.1 
		1734.4,913.1 1734.4,833.2 1777.3,833.2 1777.3,594.2 1734.4,594.2 	"/>
	<polygon fill="#FFFFFF" points="1938,514 1965.1,514 2183.2,736.1 2183.2,514 2263,514 2263,913.1 2243.3,913.1 2019.8,680.5 
		2020,913.1 1938,913.1 	"/>
	<polygon fill="#FFFFFF" points="2305.1,514 2332.2,514 2550.2,736.1 2550.2,514 2630,514 2630,913.1 2608.9,913.1 2385.4,680.5 
		2385.4,913.1 2305.1,913.1 	"/>
	<g>
		<path fill="#FFFFFF" d="M173.8,1564.1V953.2h265.1v81.7H267.1v169.2H394v95H267.1v170.6h171.7v94.3H173.8z"/>
		<path fill="#FFFFFF" d="M607.7,1578.1c-41.8,0-76.8-13.9-105.1-41.6c-28.3-27.8-42.4-63-42.4-105.7l-0.1-477.5h95.5l0.2,478.2
			c0,14.7,5.2,27.3,15.7,37.8c10.4,10.5,23,15.7,37.8,15.7c14.7,0,27.3-5.2,37.8-15.7c10.4-10.5,15.7-23,15.7-37.8V953.2h93.2
			l0.1,477.5c0,42.7-14,77.9-42,105.7C685.9,1564.2,650.5,1578.1,607.7,1578.1z"/>
		<path fill="#FFFFFF" d="M1071.7,1429.1c0,42.2-14.2,77.6-42.5,106.2c-28.3,28.6-63.6,42.8-105.8,42.8H775.1V953.2h148.3
			c42.2,0,77.5,14.3,105.8,42.8c28.3,28.6,42.5,64.2,42.5,106.9V1429.1z M869.4,1485.2h56.9c14.9,0,27.5-5.4,37.8-16.2
			c10.3-10.8,15.5-23.4,15.5-37.8v-327.5c0-14.9-5.2-27.6-15.5-38.2c-10.3-10.6-22.9-15.8-37.8-15.8h-56.9V1485.2z"/>
		<path fill="#FFFFFF" d="M1237.5,1578.1c-41.8,0-76.8-13.7-105.1-41.2c-28.3-27.5-42.4-62.1-42.4-103.9v-333.3
			c0-42.3,14.1-77.2,42.4-104.6c28.3-27.5,63.3-41.2,105.1-41.2c42.8,0,78.1,13.7,106.2,41.2c28,27.5,42,62.4,42,104.6v70.5h-93.3
			v-72.6c0-14.6-5.2-27-15.6-37.3c-10.4-10.3-22.9-15.5-37.5-15.5c-14.2,0-26.5,5.2-37.2,15.5c-10.6,10.3-15.9,22.8-15.9,37.4v335.2
			c0,14.6,5.3,27.1,15.9,37.4c10.6,10.3,23,15.5,37.2,15.5c14.6,0,27.1-5.2,37.5-15.5c10.4-10.3,15.6-22.8,15.6-37.3v-83.8h93.3
			v84.6c0,41.8-14,76.3-42,103.5C1315.6,1564.4,1280.3,1578.1,1237.5,1578.1z"/>
	</g>
	<g>
		<path fill="#FFFFFF" d="M1805,1578.1h-275.5c-2.8-127,33.6-230.3,121.6-332.6c66.7-77.7,78.7-99.6,78.7-146.2
			c0-41.1-18.5-66.7-49.1-66.7c-36.1,0-50.9,29.2-50.9,100.5c0,1.8,0,7.3,0.9,13.7h-95.4v-21.9c0-64,12-107.8,37.1-133.4
			c24.1-24.7,64.8-38.4,113-38.4c89.9,0,139,51.2,139,144.4c0,41.1-10.2,79.5-29.6,116c-11.1,21-30.6,45.7-76.9,100.5
			c-63.9,77.7-86.2,121.5-88,175.4H1805L1805,1578.1z"/>
		<path fill="#FFFFFF" d="M2140.4,1433.3c0,41.2-14,75.7-42,103.3c-28,27.7-63.4,41.5-106.2,41.5c-41.8,0-76.8-13.8-105.1-41.5
			c-28.3-27.6-42.4-62.1-42.4-103.3v-333.2c0-41.7,14.1-76.4,42.4-104c28.3-27.6,63.3-41.5,105.1-41.5c42.8,0,78.1,13.8,106.2,41.5
			c28,27.7,42,62.3,42,104V1433.3z M2047,1098c0-14.1-5.2-26.4-15.6-36.9c-10.4-10.5-22.9-15.8-37.5-15.8
			c-14.2,0-26.5,5.3-37.2,15.8c-10.6,10.5-15.9,22.8-15.9,36.9v333.2c0,14.5,5.3,27,15.9,37.3c10.6,10.3,23,15.5,37.2,15.5
			c14.6,0,27.1-5.2,37.5-15.5c10.4-10.3,15.6-22.7,15.6-37.3V1098z"/>
		<path fill="#FFFFFF" d="M2234.4,1578.1v-481h-79.8v-66.3c23.7-2.9,45.4-11.3,64.8-25.3c19.5-14,34-31.5,43.5-52.4h64.8v624.9
			H2234.4z"/>
		<path fill="#FFFFFF" d="M2629.9,954.6v70.6l-131.1,552.9h-92.6l130.4-529.2h-187.4v-94.3H2629.9z"/>
	</g>
	<g>
		<path fill="#FFFFFF" d="M997.2,514H972L768.1,913.1h90.7l36.7-73.9h164.8l35.2,73.9h89.5L997.2,514z M937.1,759.1l44.3-89.8
			l45.1,89.8H937.1z"/>
	</g>
	<polygon fill="#FFFFFF" points="970.9,738.4 981.7,717 992.7,738.4 	"/>
</g>
</svg>
